<?xml version="1.0" standalone="no"?>
<!DOCTYPE svg PUBLIC "-//W3C//DTD SVG 20010904//EN"
 "http://www.w3.org/TR/2001/REC-SVG-20010904/DTD/svg10.dtd">
<svg version="1.0" xmlns="http://www.w3.org/2000/svg"
 width="639.000000pt" height="486.000000pt" viewBox="0 0 639.000000 486.000000"
 preserveAspectRatio="xMidYMid meet">

<g transform="translate(0.000000,486.000000) scale(0.100000,-0.100000)"
fill="#000000" stroke="none">
<path d="M1175 4850 c-158 -15 -339 -66 -470 -132 -198 -100 -387 -272 -506
-463 -76 -121 -92 -153 -136 -280 -60 -174 -57 -103 -61 -1490 -2 -1106 -1
-1284 13 -1375 49 -334 239 -655 504 -855 84 -64 272 -159 377 -191 208 -63
55 -59 2299 -59 1662 0 2054 2 2115 13 268 48 512 176 706 368 108 107 153
173 235 341 61 125 95 240 121 413 19 123 19 2464 0 2595 -34 240 -113 439
-236 600 -17 22 -38 49 -46 60 -8 11 -46 51 -85 89 -182 179 -385 286 -657
348 l-93 22 -2000 2 c-1100 1 -2036 -2 -2080 -6z m4162 -38 c217 -48 391 -128
545 -251 223 -178 371 -403 437 -661 45 -178 46 -210 46 -1470 0 -1278 1
-1255 -51 -1470 -29 -119 -126 -329 -194 -420 -115 -155 -287 -295 -478 -390
-142 -71 -276 -106 -452 -121 -82 -7 -801 -9 -2085 -6 -2145 4 -1997 0 -2199
61 -104 32 -276 119 -364 184 -84 63 -224 206 -285 293 -63 90 -140 245 -176
358 -63 193 -62 177 -59 1566 4 1391 0 1305 68 1500 41 117 66 164 146 287
207 314 558 520 949 558 44 4 973 7 2065 6 l1985 -1 102 -23z"/>
<path d="M3748 3865 c-21 -8 -53 -26 -72 -40 -32 -25 -93 -124 -101 -165 -2
-11 -49 -102 -103 -203 -55 -100 -115 -213 -133 -252 -34 -70 -416 -824 -704
-1390 -84 -165 -174 -343 -200 -395 -95 -190 -191 -248 -393 -237 -127 7 -244
42 -397 117 -142 70 -224 130 -326 237 -159 167 -258 361 -306 603 -22 107
-21 389 2 495 33 157 128 362 220 474 84 104 213 215 320 278 71 42 244 112
350 141 88 24 100 25 540 31 498 7 498 7 548 72 51 69 43 154 -18 208 l-36 31
-449 0 c-509 0 -581 -6 -765 -66 -272 -89 -459 -205 -643 -399 -188 -198 -331
-486 -397 -800 -17 -82 -19 -273 -5 -395 32 -261 131 -525 274 -725 31 -44
106 -132 166 -196 89 -95 126 -127 204 -173 281 -168 472 -236 721 -257 177
-15 245 -5 360 50 168 82 186 108 461 669 122 250 222 458 221 461 0 3 77 164
172 356 96 193 202 409 236 480 35 72 96 200 137 285 98 204 134 237 189 173
22 -24 52 -84 46 -90 -3 -2 77 -170 177 -371 101 -202 227 -458 281 -569 54
-112 101 -203 105 -203 8 0 322 109 327 113 4 4 -84 187 -277 582 -76 154
-214 436 -308 626 -93 191 -182 363 -197 382 -51 68 -143 93 -227 62z"/>
<path d="M3732 3241 c-10 -6 8 -53 81 -202 52 -107 182 -373 288 -591 106
-219 197 -398 203 -397 48 3 48 2 -247 607 -160 325 -295 592 -301 592 -6 0
-17 -4 -24 -9z"/>
<path d="M4743 2054 c-165 -87 -233 -126 -233 -134 0 -4 106 -225 235 -490
129 -265 235 -485 235 -488 1 -4 9 -17 20 -30 35 -42 79 -52 228 -52 154 0
166 4 160 59 -3 31 -557 1170 -570 1171 -3 0 -37 -16 -75 -36z"/>
<path d="M4400 1875 c-14 -17 15 -82 212 -477 48 -98 86 -178 83 -178 -8 0
171 -353 195 -382 11 -14 36 -35 55 -47 l35 -20 11 21 c10 18 9 24 -6 33 -60
35 -40 -2 -385 708 -96 196 -177 357 -181 357 -3 0 -12 -7 -19 -15z"/>
</g>
</svg>
